<svg id="Layer_1" xmlns="http://www.w3.org/2000/svg" viewBox="0 0 49.6 49.6"><style>.st0{fill:#fff}</style><path class="st0" d="M6.4 0h36.9c3.5 0 6.4 2.9 6.4 6.4v36.9c0 3.5-2.9 6.4-6.4 6.4H6.4c-3.5 0-6.4-2.9-6.4-6.4V6.4C0 2.9 2.9 0 6.4 0zm29.8 5.5c-1.2 0-2.2 1-2.2 2.2V13c0 1.2 1 2.2 2.2 2.2h5.6c1.2 0 2.2-1 2.2-2.2V7.8c0-1.2-1-2.2-2.2-2.2h-5.6zM44 21h-4.4c.4 1.4.6 2.8.6 4.3 0 8.3-6.9 14.9-15.4 14.9S9.4 33.5 9.4 25.3c0-1.5.2-2.9.6-4.3H5.5v21c0 1.1.9 2 2 2h34.6c1.1 0 2-.9 2-2V21zm-19.1-5.9c-5.5 0-10 4.3-10 9.7 0 5.3 4.5 9.7 10 9.7s10-4.3 10-9.7c-.1-5.4-4.5-9.7-10-9.7z"/></svg>